<svg width="108" height="108" viewBox="0 0 108 108" fill="none" xmlns="http://www.w3.org/2000/svg">
<path fill-rule="evenodd" clip-rule="evenodd" d="M47.25 9.39854e-08C20.6124 3.34756 0 26.2479 0 54C0 81.7521 20.6124 104.652 47.25 108V94.2514C28.0954 91.0128 13.5 74.2241 13.5 54C13.5 33.7758 28.0954 16.9871 47.25 13.7485V9.39854e-08ZM47.25 27.6467C35.6047 30.6674 27 41.321 27 54C27 66.679 35.6047 77.3326 47.25 80.3532V65.7851C43.2148 63.4327 40.5 59.0358 40.5 54C40.5 48.9641 43.2148 44.5673 47.25 42.2149V27.6467ZM60.75 42.2149V27.6467C72.3953 30.6674 81 41.321 81 54C81 66.679 72.3953 77.3326 60.75 80.3532V65.7851C64.7852 63.4327 67.5 59.0358 67.5 54C67.5 48.9641 64.7852 44.5673 60.75 42.2149ZM60.75 94.2514C79.9046 91.0128 94.5 74.2241 94.5 54C94.5 33.7758 79.9046 16.9871 60.75 13.7485V0C87.3876 3.34756 108 26.2479 108 54C108 81.7521 87.3876 104.652 60.75 108V94.2514Z" fill="#9F9F9F"/>
</svg>
