<?xml version="1.0" encoding="utf-8"?>
<!-- Generator: Adobe Illustrator 24.1.2, SVG Export Plug-In . SVG Version: 6.00 Build 0)  -->
<svg version="1.1" id="Слой_1" xmlns="http://www.w3.org/2000/svg" xmlns:xlink="http://www.w3.org/1999/xlink" x="0px" y="0px"
	 viewBox="0 0 595.28 841.89" style="enable-background:new 0 0 595.28 841.89;" xml:space="preserve">
<style type="text/css">
	.st0{fill:#1E1E1E;}
	.st1{fill:#3A373C;}
	.st2{fill:#FFFFFF;}
	.st3{fill:#EE5C54;}
	.st4{fill:#F8BC45;}
	.st5{fill:#5DC942;}
</style>
<path id="ContentContainer_1_" class="st0" d="M494.88,642.79h-378.1c-9.39,0-17.01-7.61-17.01-17.01V309.36h412.11v316.42
	C511.89,635.18,504.27,642.79,494.88,642.79z"/>
<path id="TopBar_1_" class="st1" d="M494.88,230.68h-378.1c-9.39,0-17.01,7.61-17.01,17.01v61.67h412.11v-61.67
	C511.89,238.29,504.27,230.68,494.88,230.68z"/>
<g id="Text_1_">
	<g id="Text_2_">
		<path class="st2" d="M171.07,501.26l43.33-27.09v-0.65l-43.33-27.09v-21.78l63.14,40.91v16.58l-63.14,40.91V501.26z"/>
		<path class="st2" d="M261.94,475.44c0-35.27,22.32-55.75,50.83-55.75c13.49,0,24.55,6.44,31.74,13.53l-13.26,14.9
			c-5.08-4.7-10.8-7.63-18.49-7.63c-15.11,0-26.14,12.84-26.14,34.15c0,21.87,11.03,34.57,27.08,34.57c7.68,0,14.01-3.77,19.17-9.4
			l13.26,14.57c-8.68,10.27-20.59,15.63-34.91,15.63C284.77,530.01,261.94,511.32,261.94,475.44z"/>
		<path class="st2" d="M353.43,421.65h25.53l12.78,49.55c3.17,11.63,5.31,22.39,8.52,34.09h0.65c3.21-11.7,5.52-22.46,8.52-34.09
			l12.55-49.55h24.64l-32.07,106.4H385.6L353.43,421.65z"/>
	</g>
</g>
<g id="Buttons_1_">
	<circle class="st3" cx="139.58" cy="270.02" r="19.26"/>
	<circle class="st4" cx="187.7" cy="270.02" r="19.26"/>
	<circle class="st5" cx="235.82" cy="270.02" r="19.26"/>
</g>
</svg>
