<svg width="10" height="16" viewBox="0 0 10 16" fill="none" xmlns="http://www.w3.org/2000/svg">
<path fill-rule="evenodd" clip-rule="evenodd" d="M9.28683 7.9842C9.73959 7.23207 10 6.35104 10 5.40918C10 2.64776 7.76144 0.40918 5.00002 0.40918C2.23859 0.40918 1.52588e-05 2.64776 1.52588e-05 5.40918C1.52588e-05 6.35106 0.260448 7.23211 0.713231 7.98425L5.00002 15.4092L9.28683 7.9842ZM7 5.40926C7 6.51383 6.10456 7.40926 5 7.40926C3.89543 7.40926 2.99999 6.51383 2.99999 5.40926C2.99999 4.30469 3.89543 3.40926 5 3.40926C6.10456 3.40926 7 4.30469 7 5.40926Z" fill="#9F9F9F"/>
</svg>
