<svg width="145" height="145" viewBox="0 0 145 145" fill="none" xmlns="http://www.w3.org/2000/svg">
<path fill-rule="evenodd" clip-rule="evenodd" d="M63.4375 0C27.6741 4.49441 0 35.2402 0 72.5C0 109.76 27.6741 140.506 63.4375 145V126.541C37.7207 122.193 18.125 99.6528 18.125 72.5C18.125 45.3471 37.7207 22.8068 63.4375 18.4587V0ZM63.4375 37.1183C47.8026 41.1738 36.25 55.4772 36.25 72.5C36.25 89.5227 47.8026 103.826 63.4375 107.882V88.3226C58.0199 85.1642 54.375 79.2611 54.375 72.5C54.375 65.7388 58.0199 59.8357 63.4375 56.6774V37.1183ZM81.5625 56.6774V37.1183C97.1974 41.1738 108.75 55.4772 108.75 72.5C108.75 89.5227 97.1974 103.826 81.5625 107.882V88.3226C86.9801 85.1642 90.625 79.2611 90.625 72.5C90.625 65.7388 86.9801 59.8357 81.5625 56.6774ZM81.5625 126.541C107.279 122.193 126.875 99.6528 126.875 72.5C126.875 45.3471 107.279 22.8068 81.5625 18.4587V9.39835e-08C117.326 4.49441 145 35.2402 145 72.5C145 109.76 117.326 140.506 81.5625 145V126.541Z" fill="#9F9F9F"/>
</svg>
