<svg width="90" height="90" viewBox="0 0 90 90" fill="none" xmlns="http://www.w3.org/2000/svg">
<path fill-rule="evenodd" clip-rule="evenodd" d="M39.375 0C17.177 2.78963 0 21.8732 0 45C0 68.1267 17.177 87.2103 39.375 90V78.5428C23.4129 75.844 11.25 61.8535 11.25 45C11.25 28.1465 23.4129 14.1559 39.375 11.4571V0ZM39.375 23.0389C29.6706 25.5561 22.5 34.4341 22.5 45C22.5 55.5658 29.6706 64.4438 39.375 66.961V54.8209C36.0124 52.8606 33.75 49.1965 33.75 45C33.75 40.8034 36.0124 37.1394 39.375 35.179V23.0389ZM50.625 35.179V23.0389C60.3294 25.5561 67.5 34.4341 67.5 45C67.5 55.5658 60.3294 64.4438 50.625 66.961V54.8209C53.9876 52.8606 56.25 49.1965 56.25 45C56.25 40.8034 53.9876 37.1394 50.625 35.179ZM50.625 78.5428C66.5871 75.844 78.75 61.8535 78.75 45C78.75 28.1465 66.5871 14.1559 50.625 11.4571V0C72.823 2.78963 90 21.8732 90 45C90 68.1267 72.823 87.2103 50.625 90V78.5428Z" fill="#9F9F9F"/>
</svg>
