<svg width="90" height="90" viewBox="0 0 90 90" fill="none" xmlns="http://www.w3.org/2000/svg">
<path fill-rule="evenodd" clip-rule="evenodd" d="M50.625 90C72.823 87.2212 90 68.2117 90 45.1747C90 20.2254 69.8528 0 45 0C20.1472 0 0 20.2254 0 45.1747C0 68.2117 17.177 87.2212 39.375 90V78.5874C23.4129 75.8991 11.25 61.9629 11.25 45.1748C11.25 26.4629 26.3604 11.2938 45 11.2938C63.6396 11.2938 78.75 26.4629 78.75 45.1748C78.75 61.9629 66.5871 75.8991 50.625 78.5874V90ZM50.625 67.0504C60.3294 64.543 67.5 55.6995 67.5 45.1747C67.5 32.7 57.4264 22.5873 45 22.5873C32.5736 22.5873 22.5 32.7 22.5 45.1747C22.5 55.6995 29.6706 64.543 39.375 67.0504V54.9574C36.0124 53.0047 33.75 49.3549 33.75 45.1746C33.75 38.9373 38.7868 33.8809 45 33.8809C51.2132 33.8809 56.25 38.9373 56.25 45.1746C56.25 49.3549 53.9876 53.0047 50.625 54.9574V67.0504Z" fill="#9F9F9F"/>
</svg>
