<svg width="108" height="108" viewBox="0 0 108 108" fill="none" xmlns="http://www.w3.org/2000/svg">
<path fill-rule="evenodd" clip-rule="evenodd" d="M60.75 108C87.3876 104.665 108 81.854 108 54.2097C108 24.2705 83.8234 0 54 0C24.1766 0 -7.62939e-06 24.2705 -7.62939e-06 54.2097C-7.62939e-06 81.854 20.6124 104.665 47.25 108V94.3048C28.0954 91.0788 13.5 74.3553 13.5 54.2097C13.5 31.7553 31.6325 13.5524 54 13.5524C76.3675 13.5524 94.5 31.7553 94.5 54.2097C94.5 74.3553 79.9046 91.0788 60.75 94.3048V108ZM60.75 80.4606C72.3953 77.4517 81 66.8395 81 54.2097C81 39.2401 68.9117 27.1048 54 27.1048C39.0883 27.1048 27 39.2401 27 54.2097C27 66.8395 35.6047 77.4517 47.25 80.4606V65.949C43.2148 63.6058 40.5 59.226 40.5 54.2097C40.5 46.7249 46.5441 40.6573 54 40.6573C61.4558 40.6573 67.5 46.7249 67.5 54.2097C67.5 59.226 64.7851 63.6058 60.75 65.949V80.4606Z" fill="#9F9F9F"/>
</svg>
