<svg width="145" height="145" viewBox="0 0 145 145" fill="none" xmlns="http://www.w3.org/2000/svg">
<path fill-rule="evenodd" clip-rule="evenodd" d="M81.5625 145C117.326 140.523 145 109.897 145 72.7815C145 32.5854 112.541 0 72.5 0C32.4594 0 0 32.5854 0 72.7815C0 109.897 27.6741 140.523 63.4375 145V126.613C37.7207 122.282 18.125 99.8291 18.125 72.7817C18.125 42.6346 42.4695 18.1955 72.5 18.1955C102.53 18.1955 126.875 42.6346 126.875 72.7817C126.875 99.8291 107.279 122.282 81.5625 126.613V145ZM81.5625 108.026C97.1974 103.986 108.75 89.738 108.75 72.7814C108.75 52.6833 92.5203 36.3906 72.5 36.3906C52.4797 36.3906 36.25 52.6833 36.25 72.7814C36.25 89.738 47.8026 103.986 63.4375 108.026V88.5424C58.0199 85.3964 54.375 79.5161 54.375 72.7813C54.375 62.7323 62.4898 54.5859 72.5 54.5859C82.5102 54.5859 90.625 62.7323 90.625 72.7813C90.625 79.5161 86.9801 85.3964 81.5625 88.5424V108.026Z" fill="#9F9F9F"/>
</svg>
